<svg id="Layer_1" data-name="Layer 1" xmlns="http://www.w3.org/2000/svg" viewBox="0 0 345.79 302.42"><defs><style>.cls-1{fill:#772f35;fill-rule:evenodd;}</style></defs><path class="cls-1" d="M124.88,338.2v3.63c7.6,3.44,15.28,7.06,23.29,11.16V522.7H124.74v7.72H290.5l1.89-86.86h-4.92c-4,23.44-10.37,41.11-21.41,57.84-10.7,16.09-24.84,21.3-39.05,21.3H192.27V381.44C222,396.41,258,432,332.92,435.29V522.7H309.69v7.72H405.5V522.7H377.22V427.29c8.68-5.21,42.08-14.88,84-65.56,1.54-1.86-48.55,37.85-84,46.49V390.65c10.84-4.74,52.45-21.76,82.95-61.94-31.11,20.56-60.73,33.2-82.82,31.34l-.13-125.35h32c12.79,0,26.32,4,36.15,18s15.62,37.57,19.19,57.84h5.92L468.92,228H309.08v6.7h23.84V360.33h0c-41.41-11.72-92.78-30-140.65-63.33V234.7H228c10.91,0,22.63,3.16,31.18,14.78,8.82,12,15.62,35,20.06,52.45H285L284.44,228H128v6.7h20.2v55.42a168.21,168.21,0,0,0-23.36-2.51v31.52c8.41,2.79,16.29,6,23.22,8.37l.07,20.74a250.2,250.2,0,0,0-23.29-10Zm67.39,10.88c34.07,16.09,77.49,51,140.65,49.1v20.55c-53.19-3.9-97.9-20.36-140.65-51.24V349.08Z" transform="translate(-124.74 -228)"/></svg>