<svg id="Layer_1" data-name="Layer 1" xmlns="http://www.w3.org/2000/svg" 
viewBox="0 0 1103.25 1112.3">

   <path d="M697.9 617.95c-88.61,-18.15 -198.58,-46.52 -301.01,-98.22l0 -96.44 76.45 0c23.22,0 48.34,4.88 66.6,22.83 18.96,18.64 33.47,54.27 43,81.38l12.46 0 -1.16 -114.62 -334.77 0 0 10.41 43.17 0c0,28.62 0,57.24 0,85.87 -43.64,-5.77 -71.38,-3.27 -107.07,-4.9 -75.19,7.53 -114.44,15.91 -195.57,61.61 84.45,-16.51 109.62,-29.84 207.98,-19.2 34.49,2.89 67.67,13.8 94.39,20.35l0.08 32.21c-36.92,-13.05 -68.39,-21.72 -109.29,-27.96 37.37,10.29 71.5,21.44 109.29,35.25l0 263.08 -50.09 0 0 11.89 354.82 0 4.03 -134.51 -10.6 0c-8.39,36.26 -22.08,63.7 -45.84,89.62 -22.78,24.85 -53.05,33 -83.55,33l-74.33 0 0 -219.01c63.58,23.33 140.73,78.44 301.01,83.56l0 135.45 -49.64 0 0 11.89 204.99 0 0 -11.89 -60.46 0c0,-49.28 0,-147.84 0,-147.84 18.5,-8.09 90.02,-23.18 179.63,-101.62 3.34,-2.93 -103.85,58.59 -179.63,71.96 0,0 0,-18.11 0,-27.16 23.17,-7.3 112.25,-33.69 177.5,-95.95 -66.59,31.82 -130.03,51.41 -177.2,48.51l-0.31 -194.21 68.61 0c27.33,0 56.26,6.09 77.3,27.85 21.08,21.8 33.52,58.31 41.21,89.66l12.57 0 -3.4 -127.92 -342.08 0 0 10.41 50.91 0 0 194.66 0 0zm-301.01 -17.5c72.98,24.92 165.92,78.97 301.01,76.16l0 31.86c-113.81,-6.07 -209.54,-31.6 -301.01,-79.46l0 -28.56 0 0z"/>

</svg>
