<svg id="Layer_1" data-name="Layer 1" xmlns="http://www.w3.org/2000/svg" viewBox="0 0 340.77 160.88">
	<path class="cls-1" d="M350.65,381.22c-30.45-6.28-68.17-16-103.39-33.78v-33.1h26.28c8,0,16.59,1.67,22.88,7.88,6.51,6.36,11.43,18.63,14.77,27.95h4.24l-.38-39.39h-115v3.56h14.85v29.54c-15-2-24.54-1.13-36.74-1.74-25.82,2.58-39.31,5.45-67.18,21.21,29-5.68,37.64-10.3,71.43-6.59,11.81,1,23.25,4.7,32.41,7v11.06a191.46,191.46,0,0,0-37.49-9.62c12.8,3.56,24.54,7.34,37.49,12.12v90.28H197.65v4.09H319.52l1.36-46.13h-3.63c-2.88,12.42-7.58,21.82-15.76,30.75-7.8,8.56-18.25,11.29-28.7,11.29H247.26V392.43c21.81,8,48.32,26.89,103.39,28.63v46.51h-17v4.09H404v-4.09H383.22V416.82c6.36-2.72,30.9-7.95,61.65-34.84,1.14-1.06-35.67,20.07-61.65,24.69v-9.31c7.95-2.5,38.55-11.59,61-32.95-22.87,10.91-44.69,17.65-60.9,16.66l-.07-66.73h23.55c9.4,0,19.32,2.12,26.51,9.62s11.52,20,14.17,30.75h4.32l-1.14-43.93H333.15v3.56h17.5v66.88Zm-103.39-6.06c25.07,8.56,57,27.12,103.39,26.21v10.91c-39.08-2-72-10.83-103.39-27.27v-9.85Z" transform="translate(-111 -310.78)"/>
</svg>